<svg width="775" height="160" viewBox="0 0 775 160" fill="none" xmlns="http://www.w3.org/2000/svg">
<path d="M0.703828 157H-0.296172V158H0.703828V157ZM0.703828 2.99999V1.99999H-0.296172V2.99999H0.703828ZM98.1638 25L97.2852 25.4775L97.2892 25.4848L97.2933 25.4921L98.1638 25ZM98.3838 70.54L97.5052 70.0625L97.5052 70.0625L98.3838 70.54ZM81.2238 86.82L81.6778 87.711L81.6844 87.7077L81.691 87.7042L81.2238 86.82ZM19.1838 92.76V91.76H18.1838V92.76H19.1838ZM19.1838 157V158H20.1838V157H19.1838ZM19.1838 77.14H18.1838V78.14H19.1838V77.14ZM77.0438 26.32L76.3268 27.0171L76.3367 27.0272L76.3468 27.037L77.0438 26.32ZM19.1838 18.4V17.4H18.1838V18.4H19.1838ZM1.70383 157V2.99999H-0.296172V157H1.70383ZM0.703828 3.99999H51.3038V1.99999H0.703828V3.99999ZM51.3038 3.99999C63.2292 3.99999 72.9601 5.96453 80.5499 9.83103L81.4578 8.04895C73.5009 3.99545 63.4318 1.99999 51.3038 1.99999V3.99999ZM80.5499 9.83103C88.1685 13.7122 93.7278 18.9319 97.2852 25.4775L99.0425 24.5225C95.2665 17.5747 89.3858 12.0878 81.4578 8.04895L80.5499 9.83103ZM97.2933 25.4921C101.014 32.0742 102.884 39.5285 102.884 47.88H104.884C104.884 39.2182 102.941 31.4191 99.0344 24.5079L97.2933 25.4921ZM102.884 47.88C102.884 56.0884 101.085 63.4751 97.5052 70.0625L99.2625 71.0175C103.016 64.1115 104.884 56.3916 104.884 47.88H102.884ZM97.5052 70.0625C93.9458 76.6119 88.3818 81.9075 80.7567 85.9358L81.691 87.7042C89.6125 83.5192 95.4886 77.9615 99.2625 71.0175L97.5052 70.0625ZM80.7699 85.929C73.1816 89.7947 63.3781 91.76 51.3038 91.76V93.76C63.5762 93.76 73.7195 91.7653 81.6778 87.711L80.7699 85.929ZM51.3038 91.76H19.1838V93.76H51.3038V91.76ZM18.1838 92.76V157H20.1838V92.76H18.1838ZM19.1838 156H0.703828V158H19.1838V156ZM19.1838 78.14H50.8638V76.14H19.1838V78.14ZM50.8638 78.14C63.2756 78.14 72.3354 75.5626 77.7509 70.1471L76.3367 68.7329C71.4856 73.5841 63.092 76.14 50.8638 76.14V78.14ZM77.7509 70.1471C83.2579 64.6401 85.9638 57.177 85.9638 47.88H83.9638C83.9638 56.7696 81.3897 63.6799 76.3367 68.7329L77.7509 70.1471ZM85.9638 47.88C85.9638 38.4428 83.2613 30.97 77.7409 25.603L76.3468 27.037C81.3864 31.9367 83.9638 38.8372 83.9638 47.88H85.9638ZM77.7608 25.6229C72.3459 20.0533 63.2816 17.4 50.8638 17.4V19.4C63.0861 19.4 71.4751 22.0267 76.3268 27.0171L77.7608 25.6229ZM50.8638 17.4H19.1838V19.4H50.8638V17.4ZM18.1838 18.4V77.14H20.1838V18.4H18.1838ZM158.246 149.74L157.733 150.598L157.74 150.602L157.746 150.606L158.246 149.74ZM131.626 121.58L130.741 122.044L130.745 122.053L131.626 121.58ZM131.626 38.64L130.745 38.1672L130.743 38.1711L131.626 38.64ZM158.246 10.48L157.738 9.61862L157.733 9.62152L158.246 10.48ZM237.886 10.48L237.373 11.3385L237.378 11.3414L237.886 10.48ZM264.506 38.64L263.621 39.1044L263.623 39.1089L264.506 38.64ZM264.506 121.58L263.621 121.116L263.621 121.116L264.506 121.58ZM237.886 149.74L238.391 150.603L238.394 150.601L237.886 149.74ZM227.766 135.88L228.272 136.743L228.276 136.74L227.766 135.88ZM247.786 114.1L246.894 113.647L246.892 113.653L247.786 114.1ZM247.786 46.12L246.892 46.5672L246.897 46.5783L247.786 46.12ZM227.766 24.56L227.25 25.4162L227.258 25.4214L227.267 25.4264L227.766 24.56ZM168.146 24.56L168.652 25.4227L168.656 25.42L168.146 24.56ZM148.126 46.12L147.237 45.6617L147.232 45.6728L148.126 46.12ZM148.126 114.1L147.229 114.542L147.233 114.55L147.237 114.558L148.126 114.1ZM168.146 135.88L167.63 136.736L167.638 136.741L167.647 136.746L168.146 135.88ZM198.066 158.64C183.109 158.64 170.013 155.374 158.746 148.874L157.746 150.606C169.359 157.306 182.81 160.64 198.066 160.64V158.64ZM158.759 148.882C147.627 142.231 138.878 132.981 132.507 121.107L130.745 122.053C137.281 134.233 146.279 143.755 157.733 150.598L158.759 148.882ZM132.512 121.116C126.291 109.253 123.166 95.5568 123.166 80H121.166C121.166 95.8298 124.348 109.854 130.741 122.044L132.512 121.116ZM123.166 80C123.166 64.4428 126.291 50.8221 132.509 39.1089L130.743 38.1711C124.348 50.2179 121.166 64.1705 121.166 80H123.166ZM132.507 39.1128C138.878 27.2394 147.627 17.9887 158.759 11.3385L157.733 9.62152C146.279 16.4646 137.281 25.9873 130.745 38.1672L132.507 39.1128ZM158.754 11.3414C170.02 4.69738 183.113 1.36 198.066 1.36V-0.640003C182.806 -0.640003 169.352 2.76928 157.738 9.61863L158.754 11.3414ZM198.066 1.36C213.168 1.36 226.258 4.69835 237.373 11.3385L238.399 9.62152C226.927 2.76832 213.471 -0.640003 198.066 -0.640003V1.36ZM237.378 11.3414C248.654 17.9912 257.398 27.2387 263.621 39.1044L265.392 38.1756C259.001 25.9879 249.998 16.4621 238.394 9.61863L237.378 11.3414ZM263.623 39.1089C269.841 50.8221 272.966 64.4428 272.966 80H274.966C274.966 64.1705 271.785 50.2179 265.389 38.1711L263.623 39.1089ZM272.966 80C272.966 95.5568 269.841 109.253 263.621 121.116L265.392 122.044C271.785 109.854 274.966 95.8298 274.966 80H272.966ZM263.621 121.116C257.398 132.981 248.654 142.229 237.378 148.879L238.394 150.601C249.998 143.758 259.001 134.232 265.392 122.044L263.621 121.116ZM237.382 148.877C226.265 155.373 213.172 158.64 198.066 158.64V160.64C213.467 160.64 226.92 157.307 238.391 150.603L237.382 148.877ZM198.066 144.36C209.511 144.36 219.591 141.832 228.272 136.743L227.26 135.017C218.928 139.902 209.208 142.36 198.066 142.36V144.36ZM228.276 136.74C237.102 131.504 243.905 124.098 248.681 114.547L246.892 113.653C242.28 122.876 235.737 129.989 227.256 135.02L228.276 136.74ZM248.678 114.553C253.604 104.85 256.046 93.3211 256.046 80H254.046C254.046 93.0789 251.649 104.283 246.895 113.647L248.678 114.553ZM256.046 80C256.046 66.6796 253.604 55.2211 248.675 45.6617L246.897 46.5783C251.648 55.7922 254.046 66.9204 254.046 80H256.046ZM248.681 45.6728C243.904 36.12 237.098 28.7833 228.265 23.6936L227.267 25.4264C235.741 30.31 242.281 37.3466 246.892 46.5672L248.681 45.6728ZM228.283 23.7038C219.6 18.4641 209.516 15.86 198.066 15.86V17.86C209.203 17.86 218.919 20.3893 227.25 25.4162L228.283 23.7038ZM198.066 15.86C186.616 15.86 176.462 18.4642 167.636 23.6999L168.656 25.42C177.137 20.3892 186.93 17.86 198.066 17.86V15.86ZM167.64 23.6973C158.959 28.7866 152.158 36.1192 147.237 45.6617L149.015 46.5783C153.775 37.3475 160.32 30.3067 168.652 25.4227L167.64 23.6973ZM147.232 45.6728C142.453 55.2294 140.086 66.6838 140.086 80H142.086C142.086 66.9162 144.412 55.7839 149.021 46.5672L147.232 45.6728ZM140.086 80C140.086 93.3169 142.454 104.842 147.229 114.542L149.023 113.658C144.412 104.292 142.086 93.0831 142.086 80H140.086ZM147.237 114.558C152.157 124.099 158.954 131.501 167.63 136.736L168.663 135.024C160.325 129.992 153.776 122.875 149.015 113.642L147.237 114.558ZM167.647 136.746C176.471 141.832 186.621 144.36 198.066 144.36V142.36C186.925 142.36 177.128 139.902 168.645 135.014L167.647 136.746ZM320.206 153.48L319.765 154.378L319.765 154.378L320.206 153.48ZM300.846 136.32L299.996 136.847L299.996 136.847L300.846 136.32ZM294.026 110.8V109.8H293.026V110.8H294.026ZM313.386 110.8H314.386V109.8H313.386V110.8ZM317.566 127.52L316.687 127.997L316.693 128.008L317.566 127.52ZM329.666 139.62L329.162 140.484L329.176 140.492L329.19 140.5L329.666 139.62ZM373.886 136.54L373.229 135.786L373.229 135.786L373.886 136.54ZM378.506 103.1L377.684 103.669L377.689 103.677L377.694 103.684L378.506 103.1ZM367.726 93.86L367.255 94.7424L367.267 94.7486L367.726 93.86ZM352.326 87.7L352.032 88.6558L352.038 88.6578L352.326 87.7ZM334.286 81.76L334.615 80.8158L334.612 80.8149L334.286 81.76ZM307.886 66.58L307.153 67.2605L307.161 67.2692L307.886 66.58ZM299.306 42.6H300.306V42.5911L300.306 42.5821L299.306 42.6ZM305.026 20.82L305.873 21.3518L305.878 21.343L305.026 20.82ZM321.746 5.85999L322.186 6.75808L322.193 6.75442L321.746 5.85999ZM373.226 5.85999L372.771 6.75078L372.778 6.75442L373.226 5.85999ZM390.166 21.04L389.313 21.563L389.318 21.57L389.322 21.5769L390.166 21.04ZM396.546 43.04V44.04H397.564L397.546 43.0221L396.546 43.04ZM377.186 43.04H376.186V44.04H377.186V43.04ZM373.886 30.5L372.997 30.9594L373.001 30.9658L373.004 30.9722L373.886 30.5ZM363.766 20.16L363.251 21.0175L363.257 21.0212L363.264 21.0248L363.766 20.16ZM347.046 16.2L347.028 17.1998L347.037 17.2H347.046V16.2ZM326.366 22.58L325.736 21.8032L325.726 21.8118L326.366 22.58ZM323.946 56.02L323.253 56.7414L323.26 56.7482L323.267 56.7548L323.946 56.02ZM339.786 64.82L339.457 65.7645L339.466 65.7677L339.476 65.7707L339.786 64.82ZM363.106 72.52L363.444 71.5791L363.433 71.5751L363.422 71.5713L363.106 72.52ZM382.906 81.76L382.391 82.6175L382.391 82.6175L382.906 81.76ZM396.546 95.4L395.68 95.901L395.685 95.9095L395.69 95.9178L396.546 95.4ZM395.886 137.64L396.747 138.149L396.752 138.14L395.886 137.64ZM378.506 153.48L378.039 152.596L378.032 152.6L378.506 153.48ZM349.686 158.64C338.513 158.64 328.843 156.609 320.647 152.582L319.765 154.378C328.288 158.564 338.272 160.64 349.686 160.64V158.64ZM320.647 152.582C312.441 148.552 306.136 142.954 301.696 135.793L299.996 136.847C304.649 144.352 311.25 150.195 319.765 154.378L320.647 152.582ZM301.696 135.793C297.259 128.637 295.026 120.317 295.026 110.8H293.026C293.026 120.643 295.339 129.337 299.996 136.847L301.696 135.793ZM294.026 111.8H313.386V109.8H294.026V111.8ZM312.386 110.8C312.386 116.975 313.818 122.713 316.687 127.997L318.445 127.043C315.74 122.06 314.386 116.652 314.386 110.8H312.386ZM316.693 128.008C319.573 133.162 323.739 137.32 329.162 140.484L330.17 138.756C325.033 135.76 321.132 131.852 318.439 127.032L316.693 128.008ZM329.19 140.5C334.799 143.531 341.646 145.02 349.686 145.02V143.02C341.886 143.02 335.386 141.575 330.141 138.74L329.19 140.5ZM349.686 145.02C360.251 145.02 368.583 142.49 374.543 137.294L373.229 135.786C367.749 140.564 359.948 143.02 349.686 143.02V145.02ZM374.543 137.294C380.477 132.12 383.466 125.614 383.466 117.84H381.466C381.466 125.026 378.734 130.986 373.229 135.786L374.543 137.294ZM383.466 117.84C383.466 111.545 382.117 106.405 379.317 102.516L377.694 103.684C380.174 107.129 381.466 111.815 381.466 117.84H383.466ZM379.328 102.531C376.585 98.5693 372.861 95.3852 368.184 92.9714L367.267 94.7486C371.684 97.0281 375.146 100.004 377.684 103.669L379.328 102.531ZM368.196 92.9776C363.726 90.5937 358.529 88.5171 352.613 86.7422L352.038 88.6578C357.855 90.4029 362.925 92.433 367.255 94.7424L368.196 92.9776ZM352.62 86.7442C346.913 84.9882 340.911 83.0122 334.615 80.8158L333.956 82.7042C340.273 84.9078 346.299 86.8917 352.032 88.6558L352.62 86.7442ZM334.612 80.8149C322.812 76.7359 314.178 71.7438 308.61 65.8908L307.161 67.2692C313.034 73.4428 321.999 78.5708 333.959 82.7051L334.612 80.8149ZM308.618 65.8995C303.099 59.9554 300.306 52.2198 300.306 42.6H298.306C298.306 52.6336 301.233 60.8846 307.153 67.2604L308.618 65.8995ZM300.306 42.5821C300.162 34.5422 302.026 27.4772 305.873 21.3518L304.179 20.2882C300.105 26.7761 298.156 34.2311 298.306 42.6178L300.306 42.5821ZM305.878 21.343C309.733 15.0606 315.159 10.1996 322.186 6.75805L321.306 4.96193C313.959 8.56035 308.238 13.6727 304.173 20.297L305.878 21.343ZM322.193 6.75442C329.361 3.17061 337.855 1.36 347.706 1.36V-0.640003C337.61 -0.640003 328.798 1.21604 321.298 4.96556L322.193 6.75442ZM347.706 1.36C357.408 1.36 365.753 3.16989 372.771 6.75075L373.68 4.96923C366.325 1.21677 357.656 -0.640003 347.706 -0.640003V1.36ZM372.778 6.75442C379.959 10.3447 385.459 15.2821 389.313 21.563L391.018 20.517C386.952 13.8913 381.159 8.70857 373.673 4.96556L372.778 6.75442ZM389.322 21.5769C393.323 27.8634 395.402 35.0145 395.546 43.0579L397.546 43.0221C397.396 34.6389 395.222 27.1233 391.009 20.5031L389.322 21.5769ZM396.546 42.04H377.186V44.04H396.546V42.04ZM378.186 43.04C378.186 38.6066 377.037 34.2655 374.767 30.0278L373.004 30.9722C375.134 34.9478 376.186 38.9668 376.186 43.04H378.186ZM374.774 30.0406C372.478 25.6017 368.962 22.0211 364.268 19.2952L363.264 21.0248C367.662 23.5789 370.893 26.8916 372.997 30.9594L374.774 30.0406ZM364.28 19.3025C359.683 16.5443 353.918 15.2 347.046 15.2V17.2C353.667 17.2 359.048 18.4957 363.251 21.0175L364.28 19.3025ZM347.063 15.2001C338.516 15.0502 331.38 17.2272 325.736 21.8032L326.996 23.3568C332.205 19.1328 338.855 17.0565 347.028 17.1998L347.063 15.2001ZM325.726 21.8118C320.186 26.4281 317.446 32.8136 317.446 40.84H319.446C319.446 33.3198 321.985 27.5319 327.006 23.3482L325.726 21.8118ZM317.446 40.84C317.446 47.627 319.336 52.9809 323.253 56.7414L324.638 55.2986C321.222 52.0191 319.446 47.253 319.446 40.84H317.446ZM323.267 56.7548C327.212 60.396 332.627 63.3886 339.457 65.7645L340.114 63.8755C333.452 61.558 328.306 58.684 324.624 55.2852L323.267 56.7548ZM339.476 65.7707C346.22 67.9699 353.991 70.5358 362.789 73.4687L363.422 71.5713C354.62 68.6375 346.845 66.0701 340.096 63.8693L339.476 65.7707ZM362.767 73.4609C370.047 76.0818 376.587 79.1352 382.391 82.6175L383.42 80.9025C377.491 77.3448 370.831 74.2381 363.444 71.5791L362.767 73.4609ZM382.391 82.6175C388.122 86.0559 392.544 90.4835 395.68 95.901L397.411 94.899C394.094 89.1698 389.423 84.5041 383.42 80.9025L382.391 82.6175ZM395.69 95.9178C398.943 101.292 400.606 108.211 400.606 116.74H402.606C402.606 107.962 400.895 100.655 397.401 94.8822L395.69 95.9178ZM400.606 116.74C400.606 123.891 398.749 130.686 395.02 137.14L396.752 138.14C400.649 131.394 402.606 124.256 402.606 116.74H400.606ZM395.025 137.131C391.321 143.4 385.677 148.56 378.039 152.596L378.973 154.364C386.881 150.186 392.824 144.787 396.747 138.149L395.025 137.131ZM378.032 152.6C370.592 156.606 361.161 158.64 349.686 158.64V160.64C361.384 160.64 371.167 158.568 378.98 154.36L378.032 152.6ZM460.241 157H459.241V158H460.241V157ZM460.241 18.18H461.241V17.18H460.241V18.18ZM414.261 18.18H413.261V19.18H414.261V18.18ZM414.261 2.99999V1.99999H413.261V2.99999H414.261ZM524.701 2.99999H525.701V1.99999H524.701V2.99999ZM524.701 18.18V19.18H525.701V18.18H524.701ZM478.721 18.18V17.18H477.721V18.18H478.721ZM478.721 157V158H479.721V157H478.721ZM461.241 157V18.18H459.241V157H461.241ZM460.241 17.18H414.261V19.18H460.241V17.18ZM415.261 18.18V2.99999H413.261V18.18H415.261ZM414.261 3.99999H524.701V1.99999H414.261V3.99999ZM523.701 2.99999V18.18H525.701V2.99999H523.701ZM524.701 17.18H478.721V19.18H524.701V17.18ZM477.721 18.18V157H479.721V18.18H477.721ZM478.721 156H460.241V158H478.721V156ZM547.266 157H546.266V158H547.266V157ZM547.266 2.99999V1.99999H546.266V2.99999H547.266ZM642.526 2.99999H643.526V1.99999H642.526V2.99999ZM642.526 18.18V19.18H643.526V18.18H642.526ZM565.746 18.18V17.18H564.746V18.18H565.746ZM565.746 71.86H564.746V72.86H565.746V71.86ZM635.926 71.86H636.926V70.86H635.926V71.86ZM635.926 86.82V87.82H636.926V86.82H635.926ZM565.746 86.82V85.82H564.746V86.82H565.746ZM565.746 141.82H564.746V142.82H565.746V141.82ZM642.526 141.82H643.526V140.82H642.526V141.82ZM642.526 157V158H643.526V157H642.526ZM548.266 157V2.99999H546.266V157H548.266ZM547.266 3.99999H642.526V1.99999H547.266V3.99999ZM641.526 2.99999V18.18H643.526V2.99999H641.526ZM642.526 17.18H565.746V19.18H642.526V17.18ZM564.746 18.18V71.86H566.746V18.18H564.746ZM565.746 72.86H635.926V70.86H565.746V72.86ZM634.926 71.86V86.82H636.926V71.86H634.926ZM635.926 85.82H565.746V87.82H635.926V85.82ZM564.746 86.82V141.82H566.746V86.82H564.746ZM565.746 142.82H642.526V140.82H565.746V142.82ZM641.526 141.82V157H643.526V141.82H641.526ZM642.526 156H547.266V158H642.526V156ZM671.446 157H670.446V158H671.446V157ZM671.446 2.99999V1.99999H670.446V2.99999H671.446ZM750.646 8.93999L750.185 9.82749L750.185 9.82749L750.646 8.93999ZM767.586 25.22L768.469 24.7504L768.469 24.7504L767.586 25.22ZM765.166 74.28L764.339 73.7181L764.332 73.7289L765.166 74.28ZM740.966 90.78L740.685 89.8204L739.529 90.1594L740.075 91.2331L740.966 90.78ZM774.626 157V158H776.256L775.517 156.547L774.626 157ZM752.846 157L751.949 157.441L752.223 158H752.846V157ZM721.606 93.42L722.504 92.979L722.229 92.42H721.606V93.42ZM689.926 93.42V92.42H688.926V93.42H689.926ZM689.926 157V158H690.926V157H689.926ZM689.926 78.9H688.926V79.9H689.926V78.9ZM745.806 26.76L745.089 27.4574L745.099 27.4672L745.109 27.4767L745.806 26.76ZM689.926 18.62V17.62H688.926V18.62H689.926ZM672.446 157V2.99999H670.446V157H672.446ZM671.446 3.99999H721.166V1.99999H671.446V3.99999ZM721.166 3.99999C733.093 3.99999 742.746 5.96495 750.185 9.82749L751.107 8.0525C743.292 3.99503 733.293 1.99999 721.166 1.99999V3.99999ZM750.185 9.82749C757.651 13.704 763.141 18.993 766.703 25.6896L768.469 24.7504C764.698 17.6603 758.894 12.096 751.107 8.0525L750.185 9.82749ZM766.703 25.6896C770.288 32.4282 772.086 39.8919 772.086 48.1H774.086C774.086 39.5881 772.218 31.7985 768.469 24.7504L766.703 25.6896ZM772.086 48.1C772.086 57.586 769.503 66.1158 764.339 73.7181L765.993 74.8419C771.389 66.8976 774.086 57.974 774.086 48.1H772.086ZM764.332 73.7289C759.357 81.2625 751.512 86.6444 740.685 89.8204L741.247 91.7396C752.42 88.4623 760.709 82.8441 766 74.8311L764.332 73.7289ZM740.075 91.2331L773.735 157.453L775.517 156.547L741.857 90.3269L740.075 91.2331ZM774.626 156H752.846V158H774.626V156ZM753.744 156.559L722.504 92.979L720.709 93.861L751.949 157.441L753.744 156.559ZM721.606 92.42H720.286V94.42H721.606V92.42ZM720.286 92.42H689.926V94.42H720.286V92.42ZM688.926 93.42V157H690.926V93.42H688.926ZM689.926 156H671.446V158H689.926V156ZM689.926 79.9H719.846V77.9H689.926V79.9ZM719.846 79.9C731.862 79.9 740.838 77.0092 746.531 71.0083L745.081 69.6317C739.92 75.0708 731.59 77.9 719.846 77.9V79.9ZM746.531 71.0083C752.158 65.0771 754.946 57.4855 754.946 48.32H752.946C752.946 57.0478 750.307 64.1229 745.081 69.6317L746.531 71.0083ZM754.946 48.32C754.946 39.015 752.162 31.5486 746.503 26.0433L745.109 27.4767C750.304 32.5313 752.946 39.4383 752.946 48.32H754.946ZM746.523 26.0626C740.967 20.3527 731.911 17.62 719.626 17.62V19.62C731.688 19.62 740.085 22.314 745.089 27.4574L746.523 26.0626ZM719.626 17.62H689.926V19.62H719.626V17.62ZM688.926 18.62V78.9H690.926V18.62H688.926Z" fill="#FFBF3C"/>
</svg>
