<svg width="867" height="160" viewBox="0 0 867 160" fill="none" xmlns="http://www.w3.org/2000/svg">
<path d="M57.9813 157L57.0451 157.352L57.2887 158H57.9813V157ZM0.12125 2.99999V1.99999H-1.32272L-0.814859 3.3517L0.12125 2.99999ZM20.1413 2.99999L21.0816 2.65985L20.843 1.99999H20.1413V2.99999ZM68.7613 137.42L67.8209 137.76L68.757 140.348L69.7006 137.763L68.7613 137.42ZM117.821 2.99999V1.99999H117.122L116.882 2.65714L117.821 2.99999ZM137.401 2.99999L138.337 3.3517L138.845 1.99999H137.401V2.99999ZM79.5413 157V158H80.2338L80.4774 157.352L79.5413 157ZM58.9174 156.648L1.05736 2.64828L-0.814859 3.3517L57.0451 157.352L58.9174 156.648ZM0.12125 3.99999H20.1413V1.99999H0.12125V3.99999ZM19.2009 3.34013L67.8209 137.76L69.7016 137.08L21.0816 2.65985L19.2009 3.34013ZM69.7006 137.763L118.761 3.34284L116.882 2.65714L67.8219 137.077L69.7006 137.763ZM117.821 3.99999H137.401V1.99999H117.821V3.99999ZM136.465 2.64828L78.6051 156.648L80.4774 157.352L138.337 3.3517L136.465 2.64828ZM79.5413 156H57.9813V158H79.5413V156ZM158.514 157H157.514V158H158.514V157ZM158.514 2.99999V1.99999H157.514V2.99999H158.514ZM176.994 2.99999H177.994V1.99999H176.994V2.99999ZM176.994 157V158H177.994V157H176.994ZM159.514 157V2.99999H157.514V157H159.514ZM158.514 3.99999H176.994V1.99999H158.514V3.99999ZM175.994 2.99999V157H177.994V2.99999H175.994ZM176.994 156H158.514V158H176.994V156ZM209.647 157H208.647V158H209.647V157ZM209.647 2.99999V1.99999H208.647V2.99999H209.647ZM228.127 2.99999L228.96 2.44632L228.663 1.99999H228.127V2.99999ZM310.187 126.42L309.354 126.974L311.187 129.73V126.42H310.187ZM310.187 2.99999V1.99999H309.187V2.99999H310.187ZM328.667 2.99999H329.667V1.99999H328.667V2.99999ZM328.667 157V158H329.667V157H328.667ZM310.187 157L309.354 157.554L309.651 158H310.187V157ZM228.127 33.58L228.96 33.0263L227.127 30.2698V33.58H228.127ZM228.127 157V158H229.127V157H228.127ZM210.647 157V2.99999H208.647V157H210.647ZM209.647 3.99999H228.127V1.99999H209.647V3.99999ZM227.294 3.55366L309.354 126.974L311.02 125.866L228.96 2.44632L227.294 3.55366ZM311.187 126.42V2.99999H309.187V126.42H311.187ZM310.187 3.99999H328.667V1.99999H310.187V3.99999ZM327.667 2.99999V157H329.667V2.99999H327.667ZM328.667 156H310.187V158H328.667V156ZM311.02 156.446L228.96 33.0263L227.294 34.1337L309.354 157.554L311.02 156.446ZM227.127 33.58V157H229.127V33.58H227.127ZM228.127 156H209.647V158H228.127V156ZM397.407 157H396.407V158H397.407V157ZM397.407 18.18H398.407V17.18H397.407V18.18ZM351.427 18.18H350.427V19.18H351.427V18.18ZM351.427 2.99999V1.99999H350.427V2.99999H351.427ZM461.867 2.99999H462.867V1.99999H461.867V2.99999ZM461.867 18.18V19.18H462.867V18.18H461.867ZM415.887 18.18V17.18H414.887V18.18H415.887ZM415.887 157V158H416.887V157H415.887ZM398.407 157V18.18H396.407V157H398.407ZM397.407 17.18H351.427V19.18H397.407V17.18ZM352.427 18.18V2.99999H350.427V18.18H352.427ZM351.427 3.99999H461.867V1.99999H351.427V3.99999ZM460.867 2.99999V18.18H462.867V2.99999H460.867ZM461.867 17.18H415.887V19.18H461.867V17.18ZM414.887 18.18V157H416.887V18.18H414.887ZM415.887 156H397.407V158H415.887V156ZM457.35 157L456.412 156.654L455.916 158H457.35V157ZM514.11 2.99999V1.99999H513.413L513.172 2.65416L514.11 2.99999ZM533.69 2.99999L534.629 2.65534L534.388 1.99999H533.69V2.99999ZM590.23 157V158H591.662L591.169 156.655L590.23 157ZM570.65 157L569.708 157.335L569.944 158H570.65V157ZM556.57 117.4L557.512 117.065L557.276 116.4H556.57V117.4ZM491.01 117.4V116.4H490.308L490.069 117.06L491.01 117.4ZM476.71 157V158H477.412L477.651 157.34L476.71 157ZM496.51 102.44L495.569 102.103L495.089 103.44H496.51V102.44ZM551.07 102.44V103.44H552.491L552.011 102.103L551.07 102.44ZM523.79 26.32L524.731 25.9826L523.79 23.3559L522.849 25.9826L523.79 26.32ZM458.288 157.346L515.048 3.34582L513.172 2.65416L456.412 156.654L458.288 157.346ZM514.11 3.99999H533.69V1.99999H514.11V3.99999ZM532.751 3.34464L589.291 157.345L591.169 156.655L534.629 2.65534L532.751 3.34464ZM590.23 156H570.65V158H590.23V156ZM571.592 156.665L557.512 117.065L555.628 117.735L569.708 157.335L571.592 156.665ZM556.57 116.4H491.01V118.4H556.57V116.4ZM490.069 117.06L475.769 156.66L477.651 157.34L491.951 117.74L490.069 117.06ZM476.71 156H457.35V158H476.71V156ZM496.51 103.44H551.07V101.44H496.51V103.44ZM552.011 102.103L524.731 25.9826L522.849 26.6574L550.129 102.777L552.011 102.103ZM522.849 25.9826L495.569 102.103L497.451 102.777L524.731 26.6574L522.849 25.9826ZM632.695 149.74L632.167 150.589L632.176 150.594L632.695 149.74ZM607.395 121.8L606.501 122.247L606.503 122.252L607.395 121.8ZM607.395 38.64L606.505 38.1841L606.501 38.1928L607.395 38.64ZM633.355 10.48L632.842 9.62151L632.837 9.6245L633.355 10.48ZM716.295 12.9L715.705 13.7074L715.71 13.7109L716.295 12.9ZM738.735 47.44V48.44H739.991L739.71 47.2158L738.735 47.44ZM717.395 47.44L716.419 47.6569L716.593 48.44H717.395V47.44ZM702.655 25.44L702.075 26.2548L702.083 26.2599L702.655 25.44ZM643.695 25L644.207 25.8589L644.218 25.8522L643.695 25ZM624.115 46.56L623.221 46.1127L623.215 46.1241L624.115 46.56ZM643.035 135.66L642.498 136.504L642.509 136.511L643.035 135.66ZM708.375 128.84L709.127 129.499L709.132 129.494L708.375 128.84ZM722.675 89.24L723.673 89.31L723.748 88.24H722.675V89.24ZM678.235 89.24H677.235V90.24H678.235V89.24ZM678.235 74.72V73.72H677.235V74.72H678.235ZM741.595 74.72H742.595V73.72H741.595V74.72ZM741.595 157V158H742.595V157H741.595ZM724.655 157L723.657 157.061L723.714 158H724.655V157ZM723.115 131.7L724.113 131.639L723.923 128.512L722.266 131.171L723.115 131.7ZM702.655 152.38L702.141 151.523L702.141 151.523L702.655 152.38ZM670.535 158.64C656.32 158.64 643.892 155.378 633.215 148.886L632.176 150.594C643.205 157.302 656.003 160.64 670.535 160.64V158.64ZM633.223 148.891C622.532 142.245 614.222 133.072 608.287 121.348L606.503 122.252C612.595 134.288 621.152 143.742 632.167 150.589L633.223 148.891ZM608.29 121.353C602.356 109.486 599.375 95.784 599.375 80.22H597.375C597.375 96.0427 600.407 110.06 606.501 122.247L608.29 121.353ZM599.375 80.22C599.375 64.656 602.356 50.9536 608.29 39.0872L606.501 38.1928C600.407 50.3797 597.375 64.3973 597.375 80.22H599.375ZM608.285 39.0959C614.364 27.2279 622.891 17.9824 633.873 11.3355L632.837 9.6245C621.526 16.4709 612.746 25.9987 606.505 38.1841L608.285 39.0959ZM633.868 11.3385C644.983 4.69835 658.073 1.36 673.175 1.36V-0.640003C657.77 -0.640003 644.314 2.76832 632.842 9.62152L633.868 11.3385ZM673.175 1.36C690.318 1.36 704.471 5.49812 715.705 13.7074L716.885 12.0926C705.239 3.58188 690.646 -0.640003 673.175 -0.640003V1.36ZM715.71 13.7109C727.089 21.921 734.438 33.2201 737.761 47.6641L739.71 47.2158C736.285 32.3266 728.675 20.599 716.88 12.089L715.71 13.7109ZM738.735 46.44H717.395V48.44H738.735V46.44ZM718.371 47.2231C716.264 37.7382 711.206 30.1898 703.228 24.62L702.083 26.2599C709.651 31.5435 714.42 38.6618 716.419 47.6569L718.371 47.2231ZM703.235 24.6252C695.396 19.0478 685.35 16.3 673.175 16.3V18.3C685.053 18.3 694.661 20.9789 702.075 26.2548L703.235 24.6252ZM673.175 16.3C661.726 16.3 651.712 18.9039 643.172 24.1478L644.218 25.8522C652.398 20.8294 662.038 18.3 673.175 18.3V16.3ZM643.183 24.1412C634.646 29.2334 627.993 36.5691 623.221 46.1128L625.01 47.0072C629.624 37.7775 636.024 30.7399 644.207 25.8588L643.183 24.1412ZM623.215 46.1241C618.588 55.6764 616.295 67.0527 616.295 80.22H618.295C618.295 67.2806 620.549 56.2169 625.015 46.9959L623.215 46.1241ZM616.295 80.22C616.295 93.3873 618.588 104.764 623.215 114.316L625.015 113.444C620.549 104.223 618.295 93.1593 618.295 80.22H616.295ZM623.215 114.316C627.835 123.854 634.261 131.262 642.498 136.504L643.572 134.816C635.676 129.792 629.489 122.679 625.015 113.444L623.215 114.316ZM642.509 136.511C650.754 141.607 660.327 144.14 671.195 144.14V142.14C660.65 142.14 651.45 139.686 643.561 134.809L642.509 136.511ZM671.195 144.14C687.819 144.14 700.525 139.309 709.127 129.499L707.623 128.181C699.506 137.438 687.425 142.14 671.195 142.14V144.14ZM709.132 129.494C717.671 119.606 722.489 106.179 723.673 89.31L721.678 89.17C720.515 105.741 715.799 118.714 707.618 128.186L709.132 129.494ZM722.675 88.24H678.235V90.24H722.675V88.24ZM679.235 89.24V74.72H677.235V89.24H679.235ZM678.235 75.72H741.595V73.72H678.235V75.72ZM740.595 74.72V157H742.595V74.72H740.595ZM741.595 156H724.655V158H741.595V156ZM725.653 156.939L724.113 131.639L722.117 131.761L723.657 157.061L725.653 156.939ZM722.266 131.171C716.767 140 710.056 146.773 702.141 151.523L703.17 153.237C711.388 148.307 718.317 141.294 723.964 132.229L722.266 131.171ZM702.141 151.523C694.281 156.238 683.773 158.64 670.535 158.64V160.64C683.991 160.64 694.896 158.202 703.17 153.237L702.141 151.523ZM770.819 157H769.819V158H770.819V157ZM770.819 2.99999V1.99999H769.819V2.99999H770.819ZM866.079 2.99999H867.079V1.99999H866.079V2.99999ZM866.079 18.18V19.18H867.079V18.18H866.079ZM789.299 18.18V17.18H788.299V18.18H789.299ZM789.299 71.86H788.299V72.86H789.299V71.86ZM859.479 71.86H860.479V70.86H859.479V71.86ZM859.479 86.82V87.82H860.479V86.82H859.479ZM789.299 86.82V85.82H788.299V86.82H789.299ZM789.299 141.82H788.299V142.82H789.299V141.82ZM866.079 141.82H867.079V140.82H866.079V141.82ZM866.079 157V158H867.079V157H866.079ZM771.819 157V2.99999H769.819V157H771.819ZM770.819 3.99999H866.079V1.99999H770.819V3.99999ZM865.079 2.99999V18.18H867.079V2.99999H865.079ZM866.079 17.18H789.299V19.18H866.079V17.18ZM788.299 18.18V71.86H790.299V18.18H788.299ZM789.299 72.86H859.479V70.86H789.299V72.86ZM858.479 71.86V86.82H860.479V71.86H858.479ZM859.479 85.82H789.299V87.82H859.479V85.82ZM788.299 86.82V141.82H790.299V86.82H788.299ZM789.299 142.82H866.079V140.82H789.299V142.82ZM865.079 141.82V157H867.079V141.82H865.079ZM866.079 156H770.819V158H866.079V156Z" fill="#FFBF3C"/>
</svg>
